<svg width="20" height="22" viewBox="0 0 20 22" fill="none" xmlns="http://www.w3.org/2000/svg">
<path d="M10 8C10.5523 8 11 8.44772 11 9V11.8182C11 12.3705 10.5523 12.8182 10 12.8182C9.44772 12.8182 9 12.3705 9 11.8182V9C9 8.44772 9.44772 8 10 8Z" fill="#1C4479"/>
<path d="M10 16C10.5523 16 11 15.5523 11 15C11 14.4477 10.5523 14 10 14C9.44772 14 9 14.4477 9 15C9 15.5523 9.44772 16 10 16Z" fill="#1C4479"/>
<path fill-rule="evenodd" clip-rule="evenodd" d="M10 20C14.4183 20 18 16.4183 18 12C18 7.58172 14.4183 4 10 4C5.58172 4 2 7.58172 2 12C2 16.4183 5.58172 20 10 20ZM10 18C13.3137 18 16 15.3137 16 12C16 8.68629 13.3137 6 10 6C6.68629 6 4 8.68629 4 12C4 15.3137 6.68629 18 10 18Z" fill="#1C4479"/>
</svg>
