<svg width="34" height="34" viewBox="0 0 34 34" fill="none" xmlns="http://www.w3.org/2000/svg">
<path d="M21.3884 28.0196C21.5037 27.4183 21.1096 26.8373 20.5082 26.7221C19.9069 26.6068 19.3259 27.0009 19.2106 27.6023L21.3884 28.0196ZM13.786 27.6023C13.6708 27.0009 13.0898 26.6068 12.4885 26.7221C11.8871 26.8373 11.493 27.4183 11.6082 28.0196L13.786 27.6023ZM11.6475 24.9518H21.3494V22.7344H11.6475V24.9518ZM19.0176 26.7023H13.9793V28.9197H19.0176V26.7023ZM13.9793 26.7023C13.2361 26.7023 13.0677 26.6936 12.9382 26.6599L12.3787 28.8055C12.8499 28.9283 13.3619 28.9197 13.9793 28.9197V26.7023ZM9.59162 25.6318C9.78881 26.2515 9.93767 26.7442 10.1886 27.1582L12.0849 26.009C12.004 25.8754 11.9377 25.6919 11.7046 24.9595L9.59162 25.6318ZM12.9382 26.6599C12.5977 26.5711 12.2882 26.3444 12.0849 26.009L10.1886 27.1582C10.6805 27.9698 11.4607 28.5661 12.3787 28.8055L12.9382 26.6599ZM21.2922 24.9595C21.059 25.6919 20.9928 25.8754 20.912 26.009L22.8083 27.1582C23.0591 26.7442 23.208 26.2515 23.4052 25.6318L21.2922 24.9595ZM19.0176 28.9197C19.6349 28.9197 20.147 28.9283 20.6181 28.8055L20.0586 26.6599C19.9291 26.6936 19.7607 26.7023 19.0176 26.7023V28.9197ZM20.912 26.009C20.7087 26.3444 20.3991 26.5711 20.0586 26.6599L20.6181 28.8055C21.5361 28.5661 22.3163 27.9698 22.8083 27.1582L20.912 26.009ZM21.3494 24.9518C21.4432 24.9518 21.5167 24.9518 21.58 24.9525C21.6432 24.9533 21.684 24.9546 21.7117 24.9564C21.7756 24.9602 21.7148 24.9637 21.6165 24.9238L22.4505 22.8693C22.2202 22.7759 22.0014 22.7526 21.8483 22.7431C21.6975 22.7338 21.5194 22.7344 21.3494 22.7344V24.9518ZM23.4052 25.6318C23.4594 25.4612 23.5147 25.2888 23.5526 25.1413C23.591 24.9918 23.6349 24.7846 23.624 24.5479L21.4089 24.6493C21.405 24.5609 21.4231 24.5191 21.405 24.5896C21.397 24.6209 21.3846 24.6644 21.3649 24.7286C21.3452 24.7926 21.3217 24.8663 21.2922 24.9595L23.4052 25.6318ZM21.6165 24.9238C21.4741 24.866 21.4134 24.7456 21.4089 24.6493L23.624 24.5479C23.591 23.8247 23.1517 23.1539 22.4505 22.8693L21.6165 24.9238ZM11.6475 22.7344C11.4775 22.7344 11.2992 22.7338 11.1485 22.7431C10.9954 22.7526 10.7766 22.7759 10.5462 22.8693L11.3803 24.9238C11.282 24.9637 11.2212 24.9602 11.2852 24.9564C11.3128 24.9546 11.3535 24.9533 11.4169 24.9525C11.4801 24.9518 11.5535 24.9518 11.6475 24.9518V22.7344ZM11.7046 24.9595C11.675 24.8663 11.6515 24.7926 11.6319 24.7286C11.6123 24.6644 11.5999 24.6209 11.5919 24.5896C11.5737 24.5191 11.5919 24.5609 11.5878 24.6493L9.37277 24.5479C9.36193 24.7846 9.40579 24.9918 9.44418 25.1413C9.48208 25.2888 9.53733 25.4612 9.59162 25.6318L11.7046 24.9595ZM10.5462 22.8693C9.84516 23.1539 9.40585 23.8247 9.37277 24.5479L11.5878 24.6493C11.5834 24.7456 11.5227 24.866 11.3803 24.9238L10.5462 22.8693ZM19.2106 27.6023L19.0468 28.4576L21.2246 28.8748L21.3884 28.0196L19.2106 27.6023ZM13.9498 28.4576L13.786 27.6023L11.6082 28.0196L11.7721 28.8748L13.9498 28.4576ZM16.4983 30.6703C15.4993 30.6703 15.2703 30.6555 15.1022 30.5975L14.3806 32.6943C14.9855 32.9025 15.67 32.8877 16.4983 32.8877V30.6703ZM11.7721 28.8748C11.9361 29.731 12.0529 30.4095 12.3563 30.9679L14.3047 29.9093C14.2065 29.7285 14.1442 29.4719 13.9498 28.4576L11.7721 28.8748ZM15.1022 30.5975C14.775 30.4851 14.487 30.2447 14.3047 29.9093L12.3563 30.9679C12.7948 31.775 13.5126 32.3956 14.3806 32.6943L15.1022 30.5975ZM19.0468 28.4576C18.8524 29.4719 18.7902 29.7285 18.692 29.9093L20.6404 30.9679C20.9437 30.4095 21.0605 29.731 21.2246 28.8748L19.0468 28.4576ZM16.4983 32.8877C17.3266 32.8877 18.0113 32.9025 18.6161 32.6943L17.8945 30.5975C17.7263 30.6555 17.4973 30.6703 16.4983 30.6703V32.8877ZM18.692 29.9093C18.5098 30.2447 18.2217 30.4851 17.8945 30.5975L18.6161 32.6943C19.4841 32.3956 20.2018 31.775 20.6404 30.9679L18.692 29.9093Z" fill="#FFF01F"/>
<path d="M7.76188 21.4341C7.20249 20.1767 6.89062 18.7778 6.89062 17.3037C6.89062 11.8289 11.1926 7.39062 16.4993 7.39062C21.8061 7.39062 26.108 11.8289 26.108 17.3037C26.108 18.7778 25.7961 20.1767 25.2367 21.4341" stroke="#FFF01F" stroke-width="2.21739" stroke-linecap="round"/>
<path d="M16.5 2.21875V3.69701" stroke="#FFF01F" stroke-width="2.21739" stroke-linecap="round" stroke-linejoin="round"/>
<path d="M31.2829 17H29.8047" stroke="#FFF01F" stroke-width="2.21739" stroke-linecap="round" stroke-linejoin="round"/>
<path d="M3.19701 17H1.71875" stroke="#FFF01F" stroke-width="2.21739" stroke-linecap="round" stroke-linejoin="round"/>
<path d="M26.9515 6.54688L25.9062 7.59215" stroke="#FFF01F" stroke-width="2.21739" stroke-linecap="round" stroke-linejoin="round"/>
<path d="M7.09217 7.59217L6.04688 6.54688" stroke="#FFF01F" stroke-width="2.21739" stroke-linecap="round" stroke-linejoin="round"/>
</svg>
