<svg width="158" height="34" viewBox="0 0 158 34" fill="none" xmlns="http://www.w3.org/2000/svg">
<g clip-path="url(#clip0_2188_27794)">
<rect x="94" width="64" height="34" rx="9.00236" fill="url(#paint0_linear_2188_27794)"/>
<path d="M142.342 11.4923C140.667 11.4923 139.254 12.1045 138.102 13.3288C137.525 13.923 137.093 14.5891 136.805 15.3273C136.535 16.0475 136.4 16.8307 136.4 17.677C136.4 19.3874 136.967 20.8458 138.102 22.0521C139.254 23.2584 140.667 23.8616 142.342 23.8616C144.016 23.8616 145.43 23.2584 146.582 22.0521C147.734 20.8458 148.31 19.3874 148.31 17.677C148.31 16.8307 148.166 16.0475 147.878 15.3273C147.59 14.5891 147.158 13.923 146.582 13.3288C145.43 12.1045 144.016 11.4923 142.342 11.4923ZM142.342 7.90039C145.024 7.90039 147.284 8.83664 149.121 10.7091C150.975 12.6176 151.902 14.9402 151.902 17.677C151.902 20.4497 150.957 22.7903 149.067 24.6988C147.248 26.5353 145.006 27.4535 142.342 27.4535C139.623 27.4535 137.345 26.4993 135.509 24.5908C133.69 22.6823 132.781 20.3777 132.781 17.677C132.781 14.9762 133.69 12.6806 135.509 10.7901C137.363 8.86364 139.641 7.90039 142.342 7.90039Z" fill="white"/>
<path d="M121.803 11.8166V17.0559H125.53C126.232 17.0559 126.844 16.7949 127.366 16.2727C127.87 15.7506 128.122 15.1384 128.122 14.4362C128.122 13.7341 127.87 13.1219 127.366 12.5998C126.844 12.0776 126.232 11.8166 125.53 11.8166H121.803ZM118.184 8.22461H125.53C127.24 8.22461 128.698 8.82777 129.905 10.0341C131.129 11.2584 131.741 12.7258 131.741 14.4362C131.741 15.5345 131.471 16.5518 130.931 17.488C130.373 18.4063 129.635 19.1265 128.716 19.6486L131.741 27.1296H127.879L125.259 20.6479H121.803V27.1296H118.184V8.22461Z" fill="white"/>
<path d="M106.467 11.8166V17.353H110.032C110.77 17.353 111.418 17.0739 111.976 16.5158C112.516 15.9756 112.786 15.3365 112.786 14.5983C112.786 13.8421 112.516 13.1939 111.976 12.6538C111.418 12.0956 110.77 11.8166 110.032 11.8166H106.467ZM102.848 8.22461H110.032C111.796 8.22461 113.299 8.84577 114.542 10.0881C115.784 11.3304 116.405 12.8338 116.405 14.5983C116.405 16.3447 115.784 17.8391 114.542 19.0815C113.281 20.3238 111.778 20.945 110.032 20.945H106.467V27.1296H102.848V8.22461Z" fill="white"/>
<path d="M81.9642 7.00533C83.3201 7.00533 84.4423 7.40275 85.3307 8.19761C86.219 8.98077 86.6632 10.0795 86.6632 11.4939C86.6632 12.7096 86.2658 13.7499 85.4709 14.6149C84.6878 15.4565 83.5247 15.8773 81.9818 15.8773H77.1074V2.92001H79.4744V7.44367C80.2459 7.15144 81.0758 7.00533 81.9642 7.00533ZM79.4744 13.7031H81.5434C82.4084 13.7031 83.063 13.5044 83.5072 13.107C83.9513 12.6979 84.1734 12.1368 84.1734 11.4238C84.1734 10.6874 83.9572 10.1321 83.5247 9.75809C83.0922 9.37235 82.4785 9.17949 81.6837 9.17949C80.9823 9.17949 80.2459 9.3256 79.4744 9.61782V13.7031Z" fill="white"/>
<path d="M66.5734 15.8773H63.9609L68.6775 2.92001H70.799L75.4454 15.8773H72.8329L69.7295 6.47932L66.5734 15.8773Z" fill="white"/>
<path d="M53.0177 15.8773H51.5449V2.92001H53.912V11.7569L60.8202 2.92001H62.293V15.8773H59.926V7.12806L53.0177 15.8773Z" fill="white"/>
<path d="M49.8899 15.8773H47.3475L46.278 12.9317H41.6842L40.6146 15.8773H38.0723L43.0869 2.92001H44.9279L49.8899 15.8773ZM45.5942 10.775L43.9986 6.33905L42.3855 10.775H45.5942Z" fill="white"/>
<path d="M37.7701 9.37236C37.7701 11.1023 37.1798 12.5576 35.9992 13.7382C34.8303 14.9071 33.2991 15.5617 31.4054 15.702V17.28H29.0033V15.702C27.0863 15.5383 25.5492 14.8779 24.392 13.7207C23.2231 12.5518 22.6387 11.1023 22.6387 9.37236C22.6387 7.64238 23.229 6.19879 24.4096 5.04157C25.5902 3.87267 27.1214 3.21809 29.0033 3.07782V1.51733H31.4054V3.07782C33.2991 3.2064 34.8303 3.85514 35.9992 5.02404C37.1798 6.20463 37.7701 7.65407 37.7701 9.37236ZM31.4054 5.25198V13.5453C32.6094 13.4635 33.5679 13.0486 34.2809 12.3005C34.994 11.5524 35.3505 10.588 35.3505 9.40743C35.3505 8.25021 34.9881 7.29171 34.2634 6.53193C33.5504 5.78383 32.5977 5.35718 31.4054 5.25198ZM29.0033 13.5453V5.25198C27.8111 5.35718 26.8584 5.78383 26.1454 6.53193C25.4323 7.28002 25.0758 8.23852 25.0758 9.40743C25.0758 10.5763 25.4323 11.5348 26.1454 12.2829C26.8701 13.0427 27.8228 13.4635 29.0033 13.5453Z" fill="white"/>
<path d="M22.3215 15.8773H19.7791L18.7096 12.9317H14.1158L13.0463 15.8773H10.5039L15.5185 2.92001H17.3595L22.3215 15.8773ZM18.0258 10.775L16.4302 6.33905L14.8172 10.775H18.0258Z" fill="white"/>
<path d="M1.66602 2.92001H6.34747C7.82029 2.92001 8.93659 3.33497 9.69638 4.16489C10.4445 4.98313 10.8185 5.97669 10.8185 7.1456C10.8185 8.33788 10.4269 9.3256 9.64377 10.1088C8.8723 10.9036 7.70924 11.301 6.1546 11.301H4.05058V15.8773H1.66602V2.92001ZM4.05058 9.10935H6.22474C6.9027 9.10935 7.42871 8.92233 7.80275 8.54828C8.18849 8.16254 8.38136 7.68329 8.38136 7.11053C8.38136 6.53777 8.20018 6.07021 7.83782 5.70785C7.48715 5.3338 7.0079 5.14677 6.40007 5.14677H4.05058V9.10935Z" fill="white"/>
<path d="M84.518 25.2669C85.2166 25.4545 85.7536 25.8195 86.1289 26.3617C86.5147 26.8934 86.7076 27.519 86.7076 28.2384C86.7076 29.1768 86.3792 29.9745 85.7223 30.6314C85.055 31.2778 84.1687 31.601 83.0635 31.601H77.918V20.0431H82.8289C83.8611 20.0431 84.664 20.3299 85.2375 20.9033C85.8109 21.4768 86.0977 22.1493 86.0977 22.9209C86.0977 23.4526 85.9517 23.9375 85.6597 24.3754C85.3678 24.8029 84.9872 25.1 84.518 25.2669ZM82.4848 21.9356H80.0294V24.61H82.4066C82.8863 24.61 83.2616 24.4796 83.5327 24.219C83.8142 23.9583 83.955 23.6299 83.955 23.2337C83.955 22.8687 83.8194 22.5611 83.5483 22.3109C83.2877 22.0607 82.9332 21.9356 82.4848 21.9356ZM80.0294 29.693H82.6569C83.2199 29.693 83.6683 29.5366 84.0019 29.2238C84.3356 28.911 84.5024 28.5304 84.5024 28.082C84.5024 27.6024 84.3356 27.2062 84.0019 26.8934C83.6787 26.5806 83.2303 26.4242 82.6569 26.4242H80.0294V29.693Z" fill="white"/>
<path d="M75.7456 31.601H68.0664V20.0431H75.7456V22.045H70.2091V24.7664H75.3233V26.7527H70.2091V29.5991H75.7456V31.601Z" fill="white"/>
<path d="M65.8941 31.601H58.2148V20.0431H65.8941V22.045H60.3575V24.7664H65.4718V26.7527H60.3575V29.5991H65.8941V31.601Z" fill="white"/>
<path d="M49.188 31.601H46.6543L50.3922 25.7517L46.8889 20.0431H49.36L51.7373 24.1408L54.2084 20.0431H56.7264L53.051 25.7517L56.7264 31.601H54.2397L51.7216 27.4252L49.188 31.601Z" fill="white"/>
<path d="M46.43 31.601H44.1622L43.2082 28.9735H39.1105L38.1565 31.601H35.8887L40.3617 20.0431H42.0039L46.43 31.601ZM42.5982 27.0498L41.175 23.0929L39.7361 27.0498H42.5982Z" fill="white"/>
<path d="M27.6956 31.601H25.3652L29.5724 20.0431H31.4648L35.6094 31.601H33.279L30.5108 23.218L27.6956 31.601Z" fill="white"/>
<path d="M25.0608 31.601H22.7931L21.839 28.9735H17.7414L16.7873 31.601H14.5195L18.9926 20.0431H20.6347L25.0608 31.601ZM21.2291 27.0498L19.8058 23.0929L18.367 27.0498H21.2291Z" fill="white"/>
<path d="M14.2512 25.7986C14.2512 27.3418 13.7246 28.6399 12.6715 29.693C11.6289 30.7356 10.263 31.3195 8.57387 31.4446V32.8522H6.4312V31.4446C4.72124 31.2987 3.35013 30.7096 2.3179 29.6773C1.27524 28.6347 0.753906 27.3418 0.753906 25.7986C0.753906 24.2555 1.28045 22.9678 2.33354 21.9356C3.38663 20.8929 4.75252 20.309 6.4312 20.1839V18.7919H8.57387V20.1839C10.263 20.2986 11.6289 20.8773 12.6715 21.9199C13.7246 22.973 14.2512 24.2659 14.2512 25.7986ZM8.57387 22.1232V29.5209C9.64781 29.4479 10.5028 29.0778 11.1388 28.4105C11.7748 27.7432 12.0929 26.883 12.0929 25.8299C12.0929 24.7977 11.7696 23.9427 11.1232 23.265C10.4872 22.5976 9.63739 22.2171 8.57387 22.1232ZM6.4312 29.5209V22.1232C5.36769 22.2171 4.51792 22.5976 3.88189 23.265C3.24587 23.9323 2.92786 24.7872 2.92786 25.8299C2.92786 26.8726 3.24587 27.7275 3.88189 28.3948C4.52834 29.0726 5.37811 29.4479 6.4312 29.5209Z" fill="white"/>
</g>
<defs>
<linearGradient id="paint0_linear_2188_27794" x1="94" y1="26.2083" x2="156.555" y2="2.07067" gradientUnits="userSpaceOnUse">
<stop stop-color="#0072FD"/>
<stop offset="1" stop-color="#0027C2"/>
</linearGradient>
<clipPath id="clip0_2188_27794">
<rect width="158" height="34" fill="white"/>
</clipPath>
</defs>
</svg>
