<svg width="26" height="26" viewBox="0 0 26 26" fill="none" xmlns="http://www.w3.org/2000/svg">
<rect width="26" height="26" rx="13" fill="#26A4E3"/>
<path fill-rule="evenodd" clip-rule="evenodd" d="M5.40112 12.5397C9.58785 10.7109 12.375 9.49571 13.7746 8.90615C17.758 7.23374 18.5953 6.94498 19.1336 6.93294C19.2532 6.93294 19.5164 6.95701 19.6958 7.10139C19.8394 7.22171 19.8753 7.37812 19.8992 7.49844C19.9231 7.61875 19.947 7.87142 19.9231 8.06393C19.7078 10.35 18.7747 15.8966 18.2963 18.4473C18.0929 19.5302 17.6981 19.8911 17.3154 19.9272C16.478 19.9994 15.844 19.3738 15.0426 18.8444C13.7746 18.0142 13.0688 17.4968 11.8367 16.6787C10.4132 15.7402 11.3343 15.2228 12.1477 14.3806C12.3631 14.164 16.0354 10.7951 16.1072 10.4943C16.1192 10.4582 16.1192 10.3139 16.0354 10.2417C15.9517 10.1695 15.8321 10.1935 15.7364 10.2176C15.6048 10.2417 13.5952 11.5892 9.68355 14.2482C9.10937 14.6453 8.595 14.8378 8.12848 14.8258C7.61411 14.8137 6.63321 14.537 5.89157 14.2964C4.99441 14.0076 4.27668 13.8512 4.33649 13.3459C4.37238 13.0812 4.73124 12.8165 5.40112 12.5397Z" fill="white"/>
</svg>
