<svg width="26" height="26" viewBox="0 0 26 26" fill="none" xmlns="http://www.w3.org/2000/svg">
<path d="M0 12.48C0 6.59688 0 3.65531 1.82765 1.82765C3.65531 0 6.59688 0 12.48 0H13.52C19.4031 0 22.3447 0 24.1724 1.82765C26 3.65531 26 6.59688 26 12.48V13.52C26 19.4031 26 22.3447 24.1724 24.1724C22.3447 26 19.4031 26 13.52 26H12.48C6.59688 26 3.65531 26 1.82765 24.1724C0 22.3447 0 19.4031 0 13.52V12.48Z" fill="#0077FF"/>
<path d="M13.8334 18.7312C7.90751 18.7312 4.52753 14.6687 4.38672 7.90871H7.35503C7.45253 12.8704 9.64083 14.972 11.3741 15.4054V7.90871H14.1692V12.1878C15.8809 12.0037 17.679 10.0537 18.2857 7.90871H21.0808C20.6149 10.5521 18.6649 12.502 17.2783 13.3037C18.6649 13.9537 20.8859 15.6545 21.7309 18.7312H18.6541C17.9933 16.6729 16.3467 15.0804 14.1692 14.8637V18.7312H13.8334Z" fill="white"/>
</svg>
